<mxfile host="app.diagrams.net" agent="Mozilla/5.0 (Windows NT 10.0; Win64; x64) AppleWebKit/537.36 (KHTML, like Gecko) Chrome/139.0.0.0 Safari/537.36 Edg/139.0.0.0" version="28.1.0">
  <diagram name="PÃ¡gina-1" id="kZGqTe2XVzo5sfYOox7R">
    <mxGraphModel dx="1094" dy="657" grid="1" gridSize="10" guides="0" tooltips="1" connect="1" arrows="1" fold="1" page="1" pageScale="1" pageWidth="827" pageHeight="583" math="0" shadow="0">
      <root>
        <mxCell id="0" />
        <mxCell id="1" parent="0" />
        <mxCell id="xcjxFG68ZafjqSgIQfne-6" value="" style="group" parent="1" vertex="1" connectable="0">
          <mxGeometry x="210" y="250" width="70" height="70" as="geometry" />
        </mxCell>
        <mxCell id="xcjxFG68ZafjqSgIQfne-3" value="" style="sketch=0;points=[[0,0,0],[0.25,0,0],[0.5,0,0],[0.75,0,0],[1,0,0],[0,1,0],[0.25,1,0],[0.5,1,0],[0.75,1,0],[1,1,0],[0,0.25,0],[0,0.5,0],[0,0.75,0],[1,0.25,0],[1,0.5,0],[1,0.75,0]];outlineConnect=0;fontColor=#232F3E;fillColor=#DD344C;strokeColor=#ffffff;dashed=0;verticalLabelPosition=bottom;verticalAlign=top;align=center;html=1;fontSize=12;fontStyle=0;aspect=fixed;shape=mxgraph.aws4.resourceIcon;resIcon=mxgraph.aws4.robotics;" parent="xcjxFG68ZafjqSgIQfne-6" vertex="1">
          <mxGeometry y="10" width="60" height="60" as="geometry" />
        </mxCell>
        <mxCell id="xcjxFG68ZafjqSgIQfne-2" value="" style="shape=image;verticalLabelPosition=bottom;labelBackgroundColor=default;verticalAlign=top;aspect=fixed;imageAspect=0;image=data:image/png,iVBORw0KGgoAAAANSUhEUgAAAgAAAAIACAYAAAD0eNT6AAAQAElEQVR4AeydCZwcVbX/z6memYRkunuCLIGwg+yIgIgKPHkIPlFARYfpSQiGZLrDKoJLcGVwDW4IPJB0TyCCZLozPvUP4vL0qQ9xR58rq4ACCQhCprsn60zX+Z/bM5PMJLP0Ut1dy68/53Z1V93lnO+tuvfUvbVYhA8IgAAIgAAIgEDgCMABCFyVw2AQAAEQAAEQIIIDgL0ABEAABEAABAJIAA5AACsdJoMACIAACASbgLEeDoChgAACIAACIAACASMAByBgFQ5zQQAEQAAEgk5g2H44AMMc8A0CIAACIAACgSIAByBQ1Q1jQQAEQAAEgk5g1H44AKMksAQBEAABEACBABGAAxCgyoapIAACIAACQSew3X44ANtZ4BcIgAAIgAAIBIYAHIDAVDUMBQEQAAEQCDqBsfbDARhLA79BAARAAARAICAE4AAEpKJhJgiAAAiAQNAJjLcfDsB4HvgHAiAAAiAAAoEgAAcgENUMI0EABEAABIJOYEf74QDsSAT/QQAEQAAEQCAABOAABKCSYSIIgAAIgEDQCexsPxyAnZlgDQiAAAiAAAj4ngAcAN9XMQwEARAAARAIOoGJ7IcDMBEVrAMBEAABEAABnxOAA+DzCoZ5IAACIAACQScwsf1wACbmgrUgAAIgAAIg4GsCcAB8Xb0wDgRAAARAIOgEJrMfDsBkZLAeBEAABEAABHxMAA6AjysXpoEACIAACASdwOT2wwGYnA22gAAIgAAIgIBvCcAB8G3VwjAQAAEQAIGgE5jKfjgAU9HBNhAAARAAARDwKQE4AD6tWJgFAiAAAiAQdAJT2w8HYGo+2AoCIAACIAACviQAB8CX1QqjQAAEQAAEgk5gOvvhAExHCNtBAARAAARAwIcE4AD4sFJhEgiAAAiAQNAJTG8/HIDpGSEGCIAACIAACPiOABwA31UpDAIBEAABEAg6gVLshwNQCiXEAQEQAAEQAAGfEYAD4LMKhTkgAAIgAAJBJ1Ca/XAASuOEWCAAAiAAAiDgKwJwAHxVnTAGBEAABEAg6ARKtR8OQKmkEA8EQAAEQAAEfEQADoCPKhOmgAAIgAAIBJ1A6fbDASidFWKCAAiAAAiAgG8IwAHwTVXCEBAAARAAgaATKMd+OADl0EJcEAABEAABEPAJATgAPqlImAECIAACIBB0AuXZDwegPF6IDQIgAAIgAAK+IAAHwBfVCCNAAARAAASCTqBc++EAlEsM8UEABEAABEDABwTgAPigEmECCIAACIBA0AmUbz8cgPKZIQUIgAAIgAAIeJ4AHADPVyEMAAEQAAEQCDqBSuyHA1AJNaQBARAAARAAAY8TgAPg8QqE+iAAAiAAAkEnUJn9cAAq44ZUIAACIAACIOBpAnAAPF19UB4EQAAEQCDoBCq1Hw5ApeSQDgRAAARAAAQ8TAAOgIcrD6qDAAiAAAgEnUDl9sMBqJwdUoIACIAACICAZwnAAfBs1UFxEAABEACBoBOoxn44ANXQQ1rXEmi/9IXW7m7B/u3aGvKGYu2Jl6MLrngp4g1toSUIlEcADWR5vBDbhQTau/oPjMVz7+yMZ6+LxXP/LxbP/yM0ODP/8Nr8Sx2J/uNdqDJU8gCBjnju7JA0/bOwubk/Fs89HuvKrdHwkfld2bdekNiwlwdMgIq+J1CdgXAAquOH1HUkcFq3NHXG80d1JPLtsUS2WxvlezW8EGLrSVXjm0L8CV2eSyT76ZKYqI3FulX/60/CBwRKJtDeLi3MdKMmmKHB7D+HEFO7hs/YzPcNSWGd7nsva3gg1pW/saMre6HZNzVdSONDQMATBOAAeKKagqekaUg7lg4cq539JdrIrozF87+buza/QUj+wiJrSPhapXK2ht01TCUnadp3TBUB20BgRwJWW+4SEjpox/U7/J+j/08mlvcy89fMvhlqy5vRgp+rg/qfxinQUYRDNQ4EBGpCoNpM4QBUSxDpHSFg5lnPjw+coQ1n8cxeG9IX2bb/oJ29nsHTYiIxQ/ktFRa2PJGQ5grTIlnACJy7+MUwE3+kQrNbNd0bSPgy4xQw0aOxeC7bGc/+0OzbnUty5yxatL5N40BAoOEE4AA0vAqCqcD8xf0HmTOk4vBpPPegzrOut8j+oTac1yoRc2Zvzq70pyNyaJYGuhzJCZn4nsCsUMuH1Mg9NDglEZ2eOsPs22LRPZubQ//qjOf+GkvkVphjoFOntUg3OlUY8gkKgerthANQPUPkMA0BHc5viXXlTo115a/tiOe/H4vn+u2Q9YQ5QyoOnxKdoFnUdF/UkYRrzZ0BWg4EBCYl0H7pwFwivopq+wkJ0ZEklOCRqYNYPL82Fs99syOeuzq2ZP1x3biDpbY1gNyLBGra6BZLwFfgCGiHH5rf1X9CRzx7ZawrtybUln+RmO7Xzr6bSf5DgUQ11Fv2DA3N+EC9C0V53iIQGixcqxrP1lBv2UsLfKdOGXyJrNDvH12b7++M67RBPLfMHEtEops0BgQERgg4sYAD4ATFwOch3LEkf7TOcb43Fs9922rL/8tm60Em/op2/O2Kxx33UQu/v/2i/O6qDwQEdiJgbicl4iXkgo8QhYX4DFVluTmWYmaEIJG7KxbPLY5dvP4AXQ8BgaoJwAGoGmEwM2hfkj2koyuX6Ixne2Px/HNsyZ/1JMXcNvV2JnLrRU6toSYx87uEDwjsSCDE1kd1nVsvFt2LhC5Q/VZSIfRULJF7Qo+/VGdXtnN42kK3QAJEwBlT4QA4w9H3uRTvwU/kTonFc8s747m/hix+nJlW6FlKTI3fU4NX5PL2izfO84qy0LM+BOYvWb+/lrRQgzdE6CA9/rqEeXVo0H7OHJPm2DR30phj1RtGQMtGE4AD0OgacHH5Zri8wzx0J567c+7a/L9E6Geq7jIhOlKXXpWZVqGwzKvKQ+/aELCt0Mc15xYNnpSRY3KZRfYP9Vh9LtaVW2PuMFiEWw49WZ/TKe3UdjgATpH0ST6d8fxReiaxTMMDOlz+PJuH7hCZM6NGXLhXE6pMshTzqDVB68lMPXf2Pz3l3cy1N8z8NXPLoTmWNYxcTDh9YsQIDgE4AMGp6wktNbfGxbry7+5M5G7XRuJ58zQzjbhcw8ka/Lp/tJAd+rDaBwEB8vrZ/zRVaB5NbI7l5TZbD+ox/reOeP6mjkT/m9vbxbMjHtPY7PPNzpnn1wbeOUI+zMk8da8jnl3QEc99KzQ48wVi6dPh/YvU1D01BEOELjIPIwqGsbByMgLDV/7ThZNt9+H6g3UE7AoW6wdWW/6fsa7cKvN0wrOuEPPOAx+aC5OmIgAHYCo6Ptq2SOcCzZygHvBrCpub1zHx15nIPCN/Fwrmp9kOWdcE03RYPUogxGzuCnHrlf+jatZkqcd/m04VvEcsuie6ecC82Ohe00YsXPh8I56DUBMb/ZipkzbBAXCSpsvymn9J/xxzQOuw3706F/hPMyeoB7y5Lx8H+HBdLWpPvFx8c+DwX3wHiUBn18CeRPwewkcJyCz9Otu0EYMzZ71o2gzTdpgpQl0P8SkBOAA+q9j2JdldzYFrDmB7yHreHNBqonm2Pub7FMQO0twkzVfvsA5/A0JA2L5KTQ3qCJiaPqkYJkVnwEwRmrbEtCnmJUmTpsCGOhFwthg4AM7ybEhu7VfJLrFEdr4eqN8NWfwCOv3Sq0GI4gsvzjv54pfSC0fMhhHQkR9zV8slDVPAOwVvcwZmhWY+H4vnV3fEs2e1t4u5uNA7VkDTCQnAAZgQi/tXdneL1WkezJPIrQgN5J8n4btV67M04MBUCKWLzBq05crS4yOmHwiE7KbL1A53PKJaFfGGmGkC6WTi74ba8i/EtO0xbZA3dPeHlk5bAQfAaaI1zk8PuMNjiWz3I+vyj4t5MI9QQotEQ6YQKhahyxctWt9WcXok9BSBRYtkJjFd7iml3afsrqRtj2mDOuO5v5o2Cc/WcF8lTacRHIDpCLlge2cit1tnPHtFLJ77tR5wD5PwtSR0EOHjFIHIppbiGaFT+SEfFxPY0jywWNUzb9/TBaRaAmKeDGrapELob7F4/gexeHYh7iSolupE6Z1fBwfAeaaO5KhzbC2d8fy7YvHc/9NOf50Q36QZv1YDpAYE2JbLcS90DcC6LMtunToTEnPxn8s084U6Ov0obybiOwdnznq+M577WmzpwJuIhAkfVxKAA+CyajEPp+nsyn1O59ie1obqG6reuRoCeZ+y2l0/YZob3ZzvrF+BjSvJDIGbW0RHQ5CmPx5Zmzd3xBzSOPqBKblViC4k2/5RLJ5/TEcxP7QQF9tWVfm1SAwHoBZUy8wzkZDmjq78eXqg/MAOWY+rv2weULNnmdkgevUE3ld9FpXnYEYghl/A1H/w/K7+Ezq78qdrw/kOcwtWRyJ7eawr95FYPLe8ePFVPNvbEc/dp/8f0OWDHfHs/+n6J7aFrtxzus083GU0iP4vhs3N+U32kPXyaNjcHFo/um1kuVGXo+nM8slt+cZzDw+Xl3uwM579oa7/r1g8d0esK39jLJ79VEdX7oMaEvq/Q3U66/wluZMXJAaOmb9k/f7G4aicjmMpcfbvGMqSMzpERzGvHyzIM7FENm32a4wKlMyuphHhANQU79SZm9fSauO5LCcDf2OW/9KDQofPCHUyNbZabj12uHFyrggzlRNbvGHvznj+KPOqVtOZmzrXDvLGWFdujf5+oNNcRBXPZXUEYnOoSV5gsf5ms/WgsPyPNpzfMrd1svDNxPQZ1WwZmYuviGM6rvpW/X+yLk9g4lfr+oO2BR3R0G1zxgT9WbKYW7/Gpj1wW75EhzORlkcnCPEZuv48zXURsbyXiD/GTJ/XsEL/p5n4u5ZFDxTE/pNthf5uHA611zghm2KJ3BP6+wEN9+rvFdoxdBvHwTyWtjORO2X+4v6DnH6t7QJ1RIjojRogjSHQQsIdZr+OxfOPxuK5Ze0X5XdvjCpeK7U2+qKzqQ3XSXM9rVuatKF7u+783w0Vhp7WiMu148fT6BSEG8QmKXkUQDv3kLny2TgN2ml1derUTSyRuyvWldVhz9xftIP/l07lbKFQYa1O5/zFIvuHzPw1tXO5dpDv1Q7dPJXxZCE6UtcF6U6OmTR8EevJavfZ+jtBwtcy0wqx6B51en6mI2FPzF2b36zHyToNf9BRh/uU56pYItvdmci9R3+fuqBr4z567LDmUZIUbPv9GrHk+BoXUjsCr9Ssl6vD+0wsnl/dGc+/sZy61LQQBwjAAXAAYilZmMaqM569Thu1v2tD921NY+7ZB38F4SbRunnb/KVZ0zgV1TIvTpofH3h1Zzz/LnXcPhiLZ78aK17pnHtcO/dNVAg9Zc5otNNKCdM1JHQBMb9JEx9FTK/QJaRyAiFNupeGY7XXfqvyfA+po6CsV+nv+ws8ZDqPTeoQPBKL576rUw636O/3d+h02nyts5GH/WhyovZLB+ZqmljxD77cRGCGdvyd6iD/NBbPPxRLZK9yL5oKeQAAEABJREFUyVSRmxhRrZRBB1QrsiP5aqN0ou7Yq7WxelKIP6Gr52mAuJeAVbDZzGv/OhbPvVjY3Jy1yf4/baC+oc7B54n4Ym2wzFSNuZAMF2dSwz8z1CE4TLU4i4kv1d9fNNNpps5C0tSvIwX/0vDb0KDcp3G0s9FviFsJHK4O3pd1quiZWFf2Vh31OdStivpFLzgANajJ7m6xinOZ8ewPtVH6jXYY5upydBY1YF2LLJnoGM3X3HK5my4hXiZgRmGYXqPH4PFeNiNgus8m5kv0OHykU9tQ05Zq/enfgFHYZm7tfsABcJCteVmGnvFf+cja/BPFuUxzkZSD+SMrEAABEAgQARZtQ01bGovnHzFt6zmJdeathQFCUFtT4QA4wLe9q//AWDy3fJfQjKeZ+Cua5QEaICAAAiAAAs4QOJS1bZ0trX83be2C4gWgzmTs9lxqqR8cgCromnu1dWe8M8TWY5rNMibC8+QJHxAAARCoGYHdNedlBR56ImZuo01kT9L/kAoJwAGoAJy5d1U7/vttth7U5As1NGmAgAAIgAAI1IdACzG1k/CvtC2+d9EimVmfYutdSm3LgwNQAV+rSZKa7FQNEBAAARAAgcYSOHtTc/66xqrgzdLhAJRZbx3x7AId6n9HmckQHQRAAARAoEYEtE3+QGcid0qNsm9YtrUuGA5AGYR1B9uNib9cRhJEBQEQAAEQqD0B05f1tF8l5jHWtS/NJyUYaD4xpfZmiE23ail7aICAAAiAAAi4iIAIHWYN5LtdpFKVqtQ+ORyAEhkXH0ZhLjopMT6igQAIgAAI1JcAE2EqoAzkcABKgLVo0fo2seirJURFFBAAARAAgcYRMH2aL6YC6oHQwKpHOZ4uY0tz6EY1YJ4GCAiAAAiAgIsJYCqg9MqBAzANq4549iwhunCaaNgMAiAAAiDgEgI6FfD+mKcfElQfkHAApuC84IqXIsy0Yooo2AQCIAACIOA+AiESXnXWFYI3QE5RN3AApoAztLnpc7oT7TtFFGwCARAAARBwJ4HDo1sGPuRO1abWql5b4QBMQlqH/k9k4qWTbMZqEAABEAABtxMQ+Wj70vyRblezUfrBAZiA/Gnd0jQy9B+aYDNWgQAIgAAIeIPAjJAtK7u7xUN9Xf3AAsoErOeuzb9fh/6Pm2ATVoEACIAACHiLwOseXjeA0dwJ6gwOwA5Q5i9Zv7+u+rgGCAiAAAiAgA8IsMjyBV0b9/GCKfXUEQ7ADrRtK/Sfumq2BggIgAAIgIA/CEQKPHSbP0xxzgo4AGNYxrryHfr3bA0QEAABEAABfxF4m7bx73a3SfXVDg7ACG9zzz+x4E1/IzywAAEQAAH/EZCb2xMvR/1nV2UWwQEY4VbY3HS9/txbAwQEQAAEQMCPBJjmNknzdW41rd56wQFQ4h1d2dcRcYLwAQEQAAEQ8DUBIbk8tmQ97vLSWg68A2DuD2Vm87KfwLPQ/QECAiAAAn4nECIrtMK0/e4ytP7aWPUv0l0ljtwf+lp3aQVtQAAEQAAEakjgxEfXDcRrmL8nsg60A9C+JLsri3zSEzUFJUEABEAABBwjICKfW3hxfg/HMqwyo0YkD7QDELJ4uULfTQMEBEAABEAgWATmDBXkC8Eyeby1gXUA5nf1n6AolmiAgAAIgAAIBJCAEC3s7Mqf3njTG6NBIB2A7m6xbLZuUeSBtF/thoAACIAACBAxsdycSEgzBfATyA7wkbV5c+Z/UgDrGyaDAAiAAAiMISBER+Yod8mYVXX/2agCA+cAzL+kf47C/owGCAiAAAiAAAgQCXe3X5TfPWgoAucA2INsOv/AVXTQdmzYCwIgAAJlEJgTahLTN5SRxKmojcsnUA5A+9L8kcQc+Hs/G7e7oWQQAAEQcC2BJfOXZAP1TJhAOQAhm27QXa9JAwQEQAAEQAAExhKwbOavmPmAsStr/buR+QfGAehckjtHK/bNjYSNskEABEAABFxMgOn1sXjuAhdr6KhqgXAATuuWJrLIPPTHUXjIDARAAARAwG8E+AvF18PXxazGFhIIB2Duutyl5laPxqJG6SAAAiAAAh4gsKe9qfnDHtCzahV97wAUb/uz+RNVk0IGIAACIAACgSAgTO+LXbz+gFob2+j8fe8AFIZC1xHTKxoNGuWDAAiAAAh4hsBMKjR91jPaVqiorx2AzkTucCa5uEI2SAYCIAACIBBYAhI7f0nu5NqZ3/icfe0AiNAXFXGzBggIgAAIgAAIlEOALYuuJ9IJgXJSeSiubx2Aznj+jVoPb9MAAQEQAAEQAIFKCJwc6xp4VyUJp0vjhu0+dQCEhQS3/blhD4MOIAACIOBlAiyfP+sKmeFlEybT3ZcOgHps56vBr9MAAQEQAAEQAIFqCBzYtiV/eTUZ7JzWHWt85wAkEtJMLJ92B15oAQIgAAIg4HUCIvTR9iXZXb1ux476+84ByFJuqRp5iAYICIAACIAACDhBYE7IYsceDuSEQk7k4SsHoP3SF1pZ+GNOgEEeIAACIAACIDCGwOWxizbuO+a/53/6ygFoGpzxQa2RPTVAQAAEQAAEQMBJAjOpaeja6jN0Tw6+cQAWXpzfg4ivInxAAARAAARAoDYEFrUvzR9Zm6zrn6tvHIDBIbtbiML1R4gSQQAEQAAEAkIgFLKru8jcTZx84QB0JPoPJuYuN4GFLiAAAiAAAr4k8I5YInuSHyzzhQNgifUJrYxmDRAQAAEQAAEQqCUBZps/X1kB7krleQegfXHuMB36X+AurNAGBEAABEDArwSE6d86l2bf4nX7PO8ANIWkWyshpAECAiAAAiAAAnUhYNv8aSrzRUF1UayMQjztAHTG80cJsXnsbxkmIyoIgAAIgAAIVEeAiU6IxfPnVJdLY1N72gEQkk8pPk/boPpDQAAEQAAEPEhAiD7d3S0l9kHuM9Czinck+o9XnO/QAAEBEAABEACBuhPQUYBjHn52wLP9kGcdABbrk1rbyl+/ISAAAiAAAiDQAALM8slSRgEaoNq0RXrSAeiIZ09Uy96qAQICIAACIAACjSRw1KNrB97dSAUqLduTDgCT9Wkiwtk/4QMCIAACINB4AnJte7tMcTda4zWcSAPPOQDzl2RfSyRvnsgYrAMBEAABEACBehMQoiNDc3Id9S632vI85wAUGK/7rbbSkR4EQAAEQMBhAsIf757kjgCHS3IsO085AB1LB45lprMdsx4ZgQAIgAAIgIAzBA5/eN3Au5zJqj65eMoBYNv+mGLB3L9CgIAACIAACLiLAIt8VKeod+ij3KXjWG084wB0dOWPUMXP0wABARAAARAAATcSOLYjnn+bGxWbSCfPOAAWk3pW5Bl9J4KNdSAAAiAAAv4moKf/ZqR6m5Fu/uGJDrUj0X+wkHjuCks3Vzx0AwEQAAEQqAmBk2JLB95Uk5wdztQTDgCL9WG1u0kDBARAAARAAARcTYBt24xYE5Gr1XT/kHp74uX9FOGFGiAgAAIgAAIg4HoCQvTv5y/Jnex2RV0/AhCSpvcpxGYNEBAAARAAARDwBAG26CNuV9TVDsD8S/rnMFGX2yFCPxAAARAAARAYS0D7rrfOjw+8euw6t/12tQMgQ9bFOpQSdhs06AMCIAACIAACUxMgErKvmi5OI7e71gE46wqZoZ3/FY2Eg7JBAARAAARAoFIC2od1xi7auG+l6WudzrUOQHRT/gI1fi8NEBAAARAAARDwFIERZZu5eci1J7IudQCEmenqEYBYgAAIgAAIgIAnCYjQ0vbEy1E3Ku9KB6BzSf5sHTo50o3AoBMIgAAIgAAITE1g3NZISJri49a45I8rHQCx6IMu4QM1QAAEQAAEQKBaAu9rb5eWajNxOr3rHID5S7KvVSNP1QABARAAARAAAc8RmEDheaG2nOseZ+86B8C2LPPgnwn4YRUIgAAIgAAIeJUAv99tmltuUii2eMPeRPJuN+kEXUAABEAABECgdAKTxjy2M55/46RbG7DBVQ4ANRUuUwZ47K9CgIAACIAACPiLgLC8100WucYBMA/+IcFjf920c0AXEAABEACB8ghMGVvo7e1d/QdOGaeOG13jAEQ35xeo3XtogIAACIAACICAHwmELLYudothrnEAFIirhkZUHwgIgAAIgAAIlEFg+qhMFF+48PnZ08esfQxXOACxrvxpauqxGiAgAAIgAAIg4GcCc7bOmGVGvBtuoyscAHLZhRENrxUoAAIgAAIg4DkCpSpsMV1JJDoYUGqK2sRruAMwf8n6/dW0czVAQAAEQAAEQMD3BMyj7mNLN5zeaEMb7gAIh8wFEaFGg0D5IAACIAACIFA5gfJSim1fUl4K52M31AFIJKRZB0He47xZyBEEQAAEQAAE3EtAx//fPvzwu8bp2FAHIC8D71TT99IAAQEQAAEQAAHPEqhA8SYK2YsrSOdYkoY6AEKy1DFLkBEIgAAIgAAIeIkA24n2dmnYFHjDHICORP/BWk//rgECAiAAAiAAAh4mUKHqwvuG5uTeUmHqqpM1zAEg2zIXQOg0SNU2IAMQAAEQAAEQ8CQBsblhI+ENcQDMc/+Z6UJP1haUBgEQAAEQAIExBKr5qX3h20Zuh68mm4rSNsQBaNuUa1dtd9cAAQEQAAEQAIEgE7BstpY0AkBDHADhxg15NAIyygQBEAABEPArAQfsYl5yWrc0OZBTWVnU3QHo6MofoRqeogECAiAAAiAAAiBAtPeea/N1vxiw7g4AsSxCbYMACIAACICAHwg4ZQMzXeRUXqXmU1cHwAxxMNHCUpVDPBAAARAAARAIBAGhs9svytf12ri6OgAjQxx48l8g9mYYCQIgAAJ+J+CofS1NIXuBozlOk1ldHYBGDHFMYz82gwAIgAAIgIArCIjFdb0boG4OwIWX5V5BQm9zBWUoAQIgAAIgAAJVEnA8udDRsaX9r3E830kyrJsDsGWrXKA6zNAAAQEQAAEQAAEQmICA2Fy3iwHr5gConbj6XyFAQAAEQAAE/ECgNjYw8YL2q2SX2uQ+Pte6OACxJeuPU6NePb5o/AMBEAABEAABENiBQDSUHzh3h3U1+VsXB0BCTXjuf02qD5mCAAiAAAg0gkAtyxSSutwNUHMHoLtbLBY5v5awkDcIgAAIgAAI+IUAM72leOF8jQ2quQPw6LPZN6kNe2uAgAAIgAAIgIAPCNTchObBQX53rUupuQMgbM2vtRHIHwRAAARAAAT8RECk9tMANXUAFi2SmVoh79QAAQEQAAEQAAFfEKiTEafELl5/QC3LqqkDsKll4BxVPqoBAgIgAAIgAAIgUDoBFjsUKz16+TFr6gCwSGf5KiEFCIAACIAACLiVQP30sqS2L8+rmQPQnnjZnPmfVT9UKAkEQAAEQAAE/ENAiI7s7Bp4Va0sqpkDELKbzBWM5hqAWumOfEEABEAABECgrgTqX5hds5H0mjkARBj+r/+OghJBAARAAAT8RECYzMl0TUyqiQPQmcjtRm/mYWgAABAASURBVMxvrInGyBQEQAAEQAAEGkKgIYUeMj8+UJNH6dfEAbBtOk8xNWmAgAAIgAAIgAAIVEHAZru9iuSTJq2JA8Bc+ycYTWoRNoAACIAACIBADQg0LEshbzgAw88vln9vGCgUDAIgAAIgAAL+IvDKWtwN4PgIwNYt9A4iwvC/QoCAAAiAAAj4hUBj7RAuOD4KYDluEtO7HM8TGYIACIAACIBAoAmw42/VddQBWLRofZvWj3n7ny4gIAACIAACIOAPAi6w4tCOJfmjndTDUQdgS0vo7apciwYICIAACIAACICAkwSs4h12juXoqAMg4qxyjlmJjEAABEAABECgYgJuSSjnOqmJYw5A+1WyCxGfQfiAAAiAAAiAAAg4ToCJjl/QtXEfpzJ2zAEIDeTPJJJZTimGfEAABEAABEDADQRcpAMPWYVznNLHMQdAh/8dU8op45APCIAACIAACPiJAIs41tc65AAIMxNe/eunvQy2gAAIgAAIEJHrIJx+7uIXw05o5YgDMH9J7kRVZp4GCAiAAAiAAAiAQO0IzJhlzfwPJ7J3xAGwLXJsSMIJo5AHCIAACIAACDhBwI15MDszDeCIA0DEcAAIHxAAARAAARCoPQEhOvu0bqn6kftVOwDtiZf3U3NfpQECAiAAAiAAAj4i4FpTdt3jmfxJ1WpXtQPQJM1nqxKsAQICIAACIAACIFAHApYlb6m2mKodAFuqV6JaI5De9wSyxPKMWvl3Des12BogIOAqAnoWlFeF1hLTk7o0++mQLiEeJuBq1YUb6wC0t0sLM/27qyFBOS8QGCChX6qiKSF5n03WmZZdOGDmYGFOOhVhDW3pZHQ/XR6oYVcNoULz5jAVQubOk5NFaCkJ30Qi/6N5/EsDBARqQWAzCT2o4Wu6z31ISN4qbB9iNdm6T4at3lQkovvmPulk5GBd6rpI8wYemF1otvYiyz5R0yxWpb4oxD/Q5VoNEBConADT8e0X5XevPAOiqkYAeM7AyVp4qwYICJRHwJwlMSXZpnOzM8O7pXsib9BGM5FJRW9ck2r90eqVc/6xatWc/sky7bt1j4H07bPXaZpfZHoiyXRP+Mp0T/QM/b87E5s3Zl3DJD/S9IMaICBQKYG/k+6nwnx+aObgnumeyIkaFmV6Il/QffV7mWTbE6u/2qZn+ywTFXBvcu+Nfbe2Pp9e0fagprlD988PZlLht6RTkX2sgn2wOgVLNd13NGzRAHEVAdcrY6nz+eZqtKzKAbBEHLkXsRoDkNZTBJ7Ts/RPFcQ+qHiWlIws7V0Zufd7N7OjjV9vKvxXbWCv701FzyzYMpeILyGiP2mAgMC0BISoX53IGzUcrfvRgbqvLs0kw3133/yKHDn4WX1725PqFCS1jHOaN298hY4oXKDZP6ABAgIlEWCubhqgKgdAd1g4ACVVU7AjMdFPzBlUhMP7p3uin+jraXuqXkT6VkZfTqfCt2kje6yWebKezX1dl446HJofxAcEtOP/nZqxZCMPzFMn8n0a/qr/6yJ33TV3QyYVvVv301NDbL2KRL6qx02+LoWjkAkJeGKl0Ju7u6XifrzihO2XDsxlYtOoeoITlGwIgV/rPnJabypyujmDSia5ocPx2rj+Ip2MLAxJ0yHqCCSVSEEDBAQeNg5qJhV5je4jt5th+0YiuTvZ+md1lC8dsuUA1eN6DZs1QEBgIgJ7PPZs9riJNpSyrmIHwNpaMHMPXEohiBM4Ao+YBjWdCr9ez6L+123W390z61l1BJaK8DEk1Oc2/aBP3Qg8K0JLC/3hYzI6xF+3UkssaHj0KnINDTUdCoe1RGiORfNORgUrVPHdABU7AEwWhv8Jnx0ImKH1a7RBPXq4QWXZYbur/mZ6wg+neyLnsyXmRVbPuko5KFNLAuY20hsKreFDzRx8Xx+7eiQofcesZ9LJyFKdcn29nnE9VEswyNt7BFjkzEq1rsgB6DZzDlx5oZUqi3TuJaCN0x907vJEHUK93u0N6o4Ue1dEvz9zsHCMnmWZ6wN23Iz//iLwFBOfrvvp1X038CYvmZZJRX87YzB8go5afEn1Nk6MLiC1IOCxPF/XfpXsUonOFTkADz+34RgtrKr7DzU9xB8ERDvOz9r9kZPM3KVXTTK3HOpZ1kLV/zydFnhJlxD/Ebh9Y2HLsW6clioV9apVvFlHLT5gW2yev/KPUtMhnq8JzOCBDSdXYmFFDoBVKJidr5LykMZfBDYTywXacX5Uz/q3+sE0PTP8lmXbr2UiDLX6oUKHbTBD/Ndo3S655/bdfXFl/ZoV4ftbWugENc9119ioTh4X76lvsV1Rn1yRAyDMp3kPETR2mMBzOuz/b+lkdLXD+TY8O3N/9obCltepIvdpgHiYABPlhegd2vmbq+k9bMnOqt95S+Sl7Mzwf+iI1dd23oo1gSJgU30cgG4z/0/0b4GCC2N3JPDHQqjpRDMnueMGv/w3Z4rPzwu/g0hu84tNwbODnybi12dSEfOkPfLjxzxEK90TvkhPyj7mR/saYZMny2Q6ccEVL0XK1b3sEYCH12VfrYXM0QAJIAEh+jMzndF32yzfP8v8p908lE5FL1F7vxDAqva6yWuFC6frfH/dHubTOGAsmWT4MyxyVeN0QMkNJtBU2NJ0ark6lO0AWGRVNNRQrmKI7z4C2hE+ajdbb+5NRgL1wp3eZHiZTnfc6r4agUaTEHhBhM/MJNuemGS7L1f39kS/og76+31pXN2M8m5BYnPZfXPZDoBIZXMN3sUKzUcIPC5DodPNi01G/gdooWdYqcjlmA7wRJW/yMSnZ3rCD3tCW4eV1OmOLwvxtQ5ni+w8QICZa+sAtLdLSDmcogESJAJCL1kF+y3p22evC5LZ421lOXxe5DJdhwsDFYJLZQuxnBOMYf/JayCTCn/SvEtg8hjYMhkBb6+XVy9atL6NyviUNQJgteWO17yjGiDBITBEIavDXBkfHJMntrS7m+0CDy1gpkcnjoG1DSZwcToZ/XWDdXBF8RErcqUq8jMNkOAQsLY2WW8ox9zyHABmXP1fDl0fxBWSD6RXtP6PD0xxxIS+5K5ZW+hcIeonfFxDQIf9b0ynIqtco1CDFTEv3mppoXeqGk9pgJREwPuRbIvLeiBQWQ6ANnpleRfexxlwC5i+nklFbww4hZ3Mz6Qij1k2Xagb9JDQb0ijCfzvc/NaP9BoJdxWvnlOgCV2u+q1WQMkCASEaucAkE1wAIKwEw3buG7m1sIVwz/xvSOB3pWRe7X3N68U3nET/teXwAarYC82t2zWt1hvlLa6p+13wnSdN7RtrJY+Kf217e3SUqotJY8AtC/JHkJMc0vNGPG8TUCH/rvM8/G9bUVttW/ZvPH9ekw8WdtSkPtUBIT5g7g+ZSpCRP/cO/xFjfFbDRD/E9jFihav1SvJ0pIdgKZQeXMLJZWOSK4kwEx3ZFLR77lSORcpddddczewzXFVSQcD9BtSbwI/zSRb8aTGaaib0RERfo9Gw1SAQphY/LOWmUu+U69kB0BbOAz/+2cfmdwSoednbC1cPXkEbBlLoLcn/GP9f4cGSH0JbNKh/yVErE0T4TMNgeJzEZg/O000bPYBAT0gSr4OoGQHQA+zkr0KHzAMrAlscTeG/sur/uYQf5iJfPGWufIsb1xsbY9uxNB/efxnbm39AhE/TfjsRMBPK7Qt0r5adDG9VSU5APMv6Z+jXsXh02eHGF4mwEyPPrd360ov29AI3e+6LfyCiHylEWUHtMyXZwwVrg+o7RWbvWoV6xSA4ILAigl6JuFu85fmDilF25IcALvAZvi/pLilFIo47iRg2/wRM1/oTu3crVWhZcvnVcMXNEBqTEAd1c9ilKoyyIX+sHl1cABekFQOH//FLdj02lKsKq1Tt+mkUjJDHE8T+HWmp/Vbnraggcr33brHgJBgjrXWdcDyzIyt4VtqXYxf8+/r44I6UB/zq32wa5iARdaJw7+m/i7NASAuKbOpi8JWNxPQRmE54YIqquZjt0aSJPRSNXkg7bQEbhgeyp42HiJMQqA3Gfm2EP15ks2BW+1Hg/VkpKQ+uzQHgOkEP0KCTaME+Omh9eF7R/9hWRmBvht4kzDhGorK8JWQijcWCmSGsEuIiyhTEbCIcfvkVIC8v+34REKapzPDmi5Ce1f/gRpndw0QnxJgllvM0KBPzaurWSG7cKsWWNAAcZyAfWffyujLjmcbwAyHmjfdqWZnNQRcfGv+zAHZcNR01k3rADRxqKShhOkKwnbXEtjU3IyzVqdqZ/XKOf/QvO7TAHGYQIhDxrlyONdgZmeuWSFhjKb4uPoLYk97IeC0DoBNguF/H+8kato3zEtDdAlxiIDOv2F41SGWY7L52d3JVsxbjwFS7U8hCvx+Wi1Dl6ef9uR9WgeAqbTbCVwOAupNQkAbgTWTbMLqCglEOfIjTbpeA8QhAkzS51BWyGaEQKYn/LC27w+N/MXCZwSYqToHoLtbjINwvM+4wJztBHK7DIZNZ7V9DX5VTSCZ5EFiwjRA1SS3ZSCWNOMW1W04nPuho1XfdC43r+Xke32POiexbtZUVpoOftLtDz87cJhujGiA+JGA8HdwS1VtKpaFv12bnAOYq9Cv7u6Z9WwALa+5yZYI9tOaU25YAU3hwuyjpyp9SgeALfu4qRJjm7cJ6BARvP8aVWHT5g3f16w3aYBUS4AJ+2m1DCdJv7on+nvdZC5c1UWwJAjWFphfPZWdUzoAInzsVImxzdMEChsKm//b0xa4WPm77pq7QYjvd7GKnlGtYPF3PaOs5xRlESLjrHpOcyhcAgGWKfvwKR0AJp7SeyiheERxLQH+4z2374432NWwfpjtX9Uw+6Bkvf6ovVofCYqxjbCTiQK4nzaCdP3LZJr6JH5KB4Boau+h/uagRAcJ/MLBvJDVBARsoV9OsBqryiPwi+5utstLgtjlECgUsJ+Ww8tjcY/tHr6Yf0K1J3UAFl6c30NT7KkB4kcCbKNzqnG9zhq0f61FoPNSCJWKMGM/rRReien6bg8/RgF7h0WJaPwQrfWvz+QOmsyQSR2ArXYBw/+TUfPDesvGCECN63HVqjn9WsSjGiAVEhAi7KcVsis9GQsx/ab0+IjpJQJNljXpdQCTOgAs1qu8ZCR0LYtANn3bnL+XlQKRKyLAJH+sKCESFQlIwQa/IonafqkLECDOtWXpttyF7ElP5id1ANQIOAAKwZfC8qQv7XKjUcJwtCqsFyHqx8t/KoRXbjIL+2m5yLwSX4TLHwHQg29Sr8ErhkPPSQgIPzHJFqx2mIAw4x7rypliP62cXXkp2Q7MfloeGO/HZosmfSvghCMAp3VLExOZpwB633pYsBMBde4wArATldqsYMvGCECFaFkI+2mF7MpNNjTIT5WbBvE9QkDogMkeCTyhA7DXuvwhalqLBogfCQjhzKpe9YopgIpJ60kI9tOK6ZWXcLYdNiMAem5QXjrvxQ6kxlZYIodOZPmEDoBupnYNAAAQAElEQVRGPFwDxK8EmNb51TS32TVEQ8+5TSfP6MOC/bROlTXyTpD1dSoOxdSZgM2FIycqcmIHQOiIiSJjnT8IWMR4AmCdqnJgxpzNdSrKd8UI9tN616nv99V6A3VNeZP06dZECgrBAZiIi1/WiVXY4Bdb3G7H927mLaqjrQFSJgFhxn5aJrOqojPBAagKoHsTC/GEJ/UTOgA0ibfgXvOgWTkEpBBCw1oOsKrjMhrWChiGbBv7aQXcKk4i5PO3V1ZMxvMJtaMv1QEQJqYJLxjwPAUYUCRgW4NoWIsk6vUlcAAqQC1sYT+tgFulSYQwAlApO7en07p9ZSIhzTvqqY7B+FULujbN0zURDRCfEmiyW8ywtE+tc6FZQltdqJXrVbLFxn5ax1pin++ndUTpxqKas/aAubtvnG47OQA2bZ1wqGBcKvzxNAFpGtzF0wZ4TXkm8K6gzsSywK0CbpUmERbwrhSeB9Ixy0539+3sAFiMBwB5oDKrUZELTbOrSY+0ZRMA77KREbEIuFH9Pjr321q/0updEspTAgdrGCc7OQBE1k6RxqXAH88TYNtGw1qnWmy/qnhW1VSn4nxVDAtjP61njQrBAagn77qXJTv17Ts5AOp17zRPUHc9UWBNCQyFLDSsNSW8PfOmDXmw3o6jvF+MEYDygFUZm/3rAFRJxifJdz6539kBIDrIJ9bCjEkIWCLhSTZhtcMExCrgrKpCpkLYTytEV3ay7m4xfcGsshMigYcIyE4n96bStxlgdgIhOnDbCvzwJwHhff1pmAutGgqBdYXVwsT7VJgUycok8Pizm/bWJOP6A/3vE4EZIwT2a2+Xce/4GVfhj/yjeAsgrgQdoeXbBe88F+RbWxttGNNO826NVskr5evJyE5nLF7R3Wt6DoYKGPn1WqWVr2+oedfc/mOTjXMA7OYCDrixdPz7G51SvepWBA1r5ayxn1bOrqyUlu3f/bQsED6PrE71uGNqnAMQIpwZ+rz+R80btxOMrsTSeQLMFhyACrHqFIDup8IVJkeycgjAUS2Hlmfj2kLjTvLHOQBkY7jSszVbnuIHdQ9f9FNeKsQum4DAqS6b2fYEMiu2eONe2//jV60I+NdRrRUxr+Y7/k6AcQ6AWIILAL1ar+XpvcvDzwwcWV4SxC6XwGndYu7/P6bcdIi/nQBz4YTt//CrdgTkuNrljZzdQoBFJr8GgITHbXSL0tCjBgRY3lCDXJHlGAJ7rs2ZRhXPARjDpOyfTNhPy4ZWXoL5l/TPEaKdHhNbXi7ujA2txhPQet5v7JpxIwC6AbcsKYQgiMV0chDsbLCN6LyqrADBflolwemT2wU2++mOfcH0CRHDcwSYaFwfv63SR14VONdzFkHhigioJwgHoCJypSdiYTAuHddkMV971hUyY7KNWF89Abbp9dXn4sYcoNMEBHYfeTx5cdM2B2Cg0G8eBBEqrsVXEAgcfEFiAy6wqmVNMxpWB/DOaNuaP96BfJDFZAS4OAIw2Vas9xcBplxu3qhJ2xwAm0Pj5gZGI2DpXwJDUjjbv9Y11rL58YFXqwb7aIBUSUCEsJ9WyXCy5O2Jl6N+HQ2czOagr29ia1tfv80BEJZtK4MOKCj2C/G7gmJrve20qQC2TkEXancqK+QznkCTHTpH14x7PKz+h/iZgCX7jpq3zQEgxvPhR6EEZckkb+pM5HYLir31tJOJz6tneT4v65WdXQOv8rmNDTFPLH5nQwqueaEoYDICMuZdMNsdANnuFUyWEOt9R6BJhM71nVUNNqgjnjtUiPCcBQfrQajwbgezQ1ZK4JzEulkk9B/6ExIkAry9r9/mAOgZC+Yrg7QTbLOVO7b9xA9HCDCDqSMgx2ZSZCo8dhV+V0dgth1+q+bgy+dUqF2QyQjI9lsBtzkAGhe3ACqE4ImcqdMAeAiIQxVffPqfSMKh7JDNdgKHdnZlz9j+F7+qJcAsl1abB9J7kADLtr5+uwPAglvCPFiXDqjMtjAaAgdAmiz2Wjtg5v4xmmZgOByErfc6nGVgs2tfmj9Sp6lO8ycAWDUlAeE9R7ePOAA6tCa8x+hKLINFwCJZZG4HCpbVtbFWSK6oTc7IVQm8rX1x7jBdQqokELJts59iSqVKjh5Nvkf3yMvgig7AhZfld1VD8LQthRBEEaJwkx26KIi2O2nzyL3/pziZJ/IaR4CbQnzJuDX4UzaBRYvWtxHxBeTTD8yalkDTX/8x8AoTq+gADG7lbXMCZiVC8AgI8weKVwUHz3THLLbJ/qhjmSGjCQnoCEsXnmA5IZqSV25qbjJTKa0lJ0BE3xFoaR7u84sOgFjDf3xnJQwqh8C82dJqhgXLSYO4IwQ64tkT9Sce/qMQaiyzh2ToEzUuw7fZdyZyuzHJ+31rIMGyUggMCu1p4g07AHYBIwCGRsCDTgVcc+FlueLQUMBRlG0+C31OE2FOVSHUXjhuLmKrfTk+LEH4Y2pVRAMkwARCMtznFx0AizECEOB9YZvp2nu1DW6lj2xbgR8lEdCz/7OI+U0lRUYkJwiEQrZ82omMgpTH/CXr99cplIv9bDNsK5GANXwnQNEBEKHdS0yGaD4noKMAl+kwIZ4LUGI9t7dLCzN/vsToiOYcgXd2duVPdy47/+dkW5bZT3Gxt/+reloLtc8vjvoXHQCNbe4C0AUEBGiG7hx3aMeGV0OXsDOEormPkdDRJURFFIcJCMvKcxe/GHY4W19mF4vn3knE55OvPzCuZAIjJ/2jDgBeCFMyuUBEfF2oLf+BQFhahZHF2/6Yr6kiCyStjsABs0It5qy2ulx8nrp4XY/QrT43E+aVQ4Bpjok+6gBgBMDQQBhL4LqOJXmc2Y4lMua3eeSvTbJSVzVrgDSMAC89P57FC22m4L91C99ETMUh3ymieX4TDCiLQLHPH3UAit5AWckR2e8EZnDIvrP9KtnF74ZWYt9e6/KfJZLjK0mLNI4SYIsptfDiPJ5kOgHWWFe+g1jmT7AJq4JNoNjnjzoAmAII9s4wsfXCx1kD+bu0o+OJIwRzbWc8/y4RwhSJW6pfeN/BgnyrvV1a3KKSG/To7Bp4lXb+ZpTKDerUWAdkXyaBcSMAxT9lZoDoASCgPf+7YvH8hwJgakkmdiwdOFZIvqaRFY1+Q9xC4A1Nc/K3uUWZRuvRviS7q7D9TdVjtgYICOxIoNjnWyNDvDN33Ir/IDCGwGfmd2XfOuZ/IH92mqeo2fa31Xg0qgrBbaKjMhepsxr4+9x1JCQUsqy01s/BGgIhMLJsAjPMo9+tlvwmPPmtbHaBSxCy2erT+cTTAmf5iMHmbYnawdynfw/QAHEtAfnPzq5sp2vVq7Fi3d1ihdryd+i03Zk1LgrZe5zATKttjkWWXbwYwOO2QP2aE5BZzHJP59Lc62telMsKWHDFS5GQNH1f1XqtBoi7CYSE+Wux4n3v7lbUae1M5//ounyP5rtQQ4AEplZCoMW2d7UKYocrSYw0wSMgRGGx6Xvzl2QD0xG2X/pCa2Fz83e1tl+nAeINAubWzLQ6Aed6Q10ntBR+ZF3+qzpKdZETuSEP/xMYZJlj2SRwAPxf105aGC1Y/IMgPIa1/aL87qHBmT9QeCdrgHiLQIuquyYI0wGJhDTH4nrmL5RQmwMnMLgyAmxLxGK28GaoyvgFNhUTtQnLDzoS2cv9CmH+0uwrQ03ygNr3Bg0QbxKYodMBd8fiueXdOjfuTROm1tpc7Z+TvJmeWjx1TGwFgfEEWHi2ZbyA8avxDwRKItCkO9DNsURuhXkqXkkpPBKps6v/zILNv1F1D9UA8TYB9Vdp2SNr8xlz1bO3TRmvvXb+h4Qs/rmuDfBLkdR6SIUEpNXSM7nWClMjGQgQ6bDj3Gdz31/QtXEfr+Mwjkwskf+4sPVd7TXavG4P9B9H4N2zafYDnfH8UePWevRPrCvfoZ2/cVLx5k6P1mGj1TZ9P6YAGl0Lfiif+U0FHvpLR1fOs3OQHYn+g+euzf+ERD6pVdKkAeI3AsLHCcmDOiWwzNwr70XzFi1a36b630ks5j7/wN/B5cU6dI3ObLVajIsAXVMfHlckykwrtHH6ZmfXwJ5escV0BLFE9ioW68+q8ykaIP4mMFPNWx5qy//EDKHrb89I55LcOZubQw+pwrjNTyFAqiNg2ToFYAtFqssGqUFgHIF3CttPqCOw3Nw/P26Ly/6cHx84QzuC35Pwl1U1vPRIIQRITtUh9IdiidwKtzusZtpCj6d7xaJ7tH720gApEsBXNQRsNhcBMuGxptVQRNqJCJh9allhU/OjHYn8JeY2pYkiNWqdeZiRNqj3W2T/UHV4lQZIMAk0k1BCHdbHYl25j7jtIsH2rv4DY135u3Xa4k9aPWdrgICAYwQs1hEAEcKZj2NIkdE4AkxzWeTWnOT/oR3u8thFG/cdt72Of3Sov0WdkfbOePaHYpO5cvrUOhaPotxNIEJMn5klrWvNiEBHV/6IRqrbmcidEuvKrQmx9ajO9ZtX+Y6+tbWRarmubChUHQERmW0x0YzqskFqEJiWgBm2XEZNQzo1kM2Yofd6jQqYxryzK/e5UFv+GXVG1gjxGaqt7vb6DQGBMQR0p2gzIwLM8hftgL+nHfE7Rl6WNiZWbX62X7xxXiyRvSoWzz2qJ2U/U4ekXUsyTzTUBQQEnCegbWHxIkBzUYzzuSNHENiZgDZofL4ZetdRgfXa2N3b0ZVLLHDwFkLTYBsHQ/NeruFhbcwfEqZrVJU9NEBAoBQClnbAb9GO+FuhgfzLnTpqFIvnlnU4ODKgI1Kh+V39J2in390Rzz0YKgw9Q8PXouDZE6XUECFStQT0hGiGpV4AHIBqSSJ9JQTMdQJnmzsHCjz0jDawf9eG8D4N18fi2YXaMJ5krtI2j+M96wrZNkpVbDgv6Z8zf3H/QbEl64/rjOffFUvkPx6LZzOax1+0wc5aw3P7y1Qp3COtECBVEZipbaQZNVpunEndx9bF4vn/jsVzX9ZRgiW6fIPus4eaCwmN87m9JOH5up/GLl5/gG571fyu7Fs7E7kPdcZzX9P4D4baBnI2Ww9qp3+tjjycoOl0od8QEKgXAeYZFgnBAagXcJQzFYH9tQV8q4YPEfGdJPyrkMWPh5rkhejm/GZtaDdpGNCh/CF7yHrZDllPkBX6vZB8Y/jefT6fiMxDXnSUQX9BQKA2BHQ6S8yrdq/SUYIeLeLnus8+Kmw/r87nRt1Ht2jIxuJ529b9lAqhp3TbH23m+3RE4XohulDja4cvszQtpEICSOYIgRaLLIID4AhLZFJjAmY/NaMGNS4G2YNAVQRaNHVEAwQE3E2ApRkjAO6uImgHAiAAAiAwjgD+OEJAWEcACCMAjsBEJiAAAiAAAiDgHQJFB8AMWXlHZWgKAiAAAiAQWAIw3CkC5iJAoianskM+IAACIAACIAACXiBgrgEgCnlBVegIAiAAAiAQdAKw3zECQi0WE1mOZYiMQAAEQAAEQAAEXE+AD02PuAAAEABJREFUWR0AIcYIgOurCgqCAAiAAAiAgHMEhIgtIoEDQPiAAAiAAAiAQKAIGAcA1wAEqsphLAiAAAh4kgCUdpqAjgDAAXAaKvIDARAAARAAAXcT4OIIALtbSWgHAiAAAiAQdAKw32kCUnQAnM4V+YEACIAACIAACLicgJkCcLmKUA8EQAAEQCDYBGB9DQgURwDsGmSMLEEABEAABEAABFxMwIwAwAFwcQVBNRAAARAIOgHYXxsCxgEo1CZr5AoCIAACIAACIOBWAsYBwAiAW2sHeoEACIBA4AkAQC0IMNEgHIBakEWeIAACIAACIOBiAjLiAGAKwMWVBNVAAARAIMgEYHvNCAxa6gVgCqBmfJExCIAACIAACLiQAMtW8zrgIReqBpVAAARAAAQCTwAAakeAi9cAbK1dAcgZBEAABEAABEDAbQSGLwJk2uw2xaAPCIAACIAACIBA7QjYQlstEtpSuyKQMwiAAAiAAAiAgNsIMOkUgJDAAXBbzUAfEAABEAg8AQCoLQEZtNQLwBRAbSkjdxAAARAAARBwGwGdAiBMAbitVqAPCIAACASdAOyvLQEh3mgRMaYACB8QAAEQAAEQCA4BZtlgieAagOBUOSwFARAAAS8QgI41JyC0wVIvYFPNC0IBIAACIAACIAACriEgRMUpgAHXaARFQAAEQAAEAk8AAOpAQGjAImE4AHVgjSJAAARAAARAwC0EmERHACyBA+CWGoEeIAACIBB4AgBQFwLMGyzWYYC6FIZCQAAEQAAEQAAEXEFAWDZYRBgBcEVtQAkQAAEQAAECgjoRsHUEQIjzdSoOxYAACIAACIAACLiAAJN5EBAuAnRBVUAFEAABEAABIjCoFwGb7X6LQzYuAqwXcZQDAiAAAiAAAi4g0GTTektszrlAF6gAAiAAAiAQcAIwv34EBoWzlgivr1+RKAkEQAAEQAAEQKDhBIRftuwWOAANrwgoAAIgAAKBJwAAdSUw0Jq1BkKzMQJQV+ooDARAAARAAAQaSmBDXx9vtb53c/F1wHghUEPrAoWDAAiAQLAJwPq6Eiie+FsjRRb/jPzGAgRAAARAAARAwKcEhKjY58MB8GkFwywQAAEQ8A4BaFpPAkzUT/qBA6AQICAAAiAAAiAQIAJZY2vRARAZHg4wKxBAAARAAARAoJ4EUFZ9CTDTi6bEogOgwwEvmz8IIAACIAACIAAC/iZgyxgHgEa8AX+bDOtGCajD9xMd9VmqXuAdum6zBggIgEDwCKwlluuY5L1q+t81NEhQbL0JaB+wfQRAO4MX6q0AymsIAdFSrz9sXviMTE8k2ZuMLC4M8X667hoNazVAQAAEfE5ASP6gbf7SmYPhQ9LJaHdvKnpzaObgsdo4fNvnpsO8bQTkn+bn8BQARgAMC7+HnJ7xn5dORa7p7mZ71Ni+O8Iv6rrrC/3hg4T5fF3/Gw0QEAABfxGw9Uz/R3rkn5tJRY8zJwCrVvG20b+7b35FLpMKn6cmm5OBbe2D/q+5oID6E9AKLp70Fx0AS6T4p/5qoMR6EBD1+K2CfZye8U/q4ZunQmWS4b50KnISC79J9fqOBt1P9BsCAiDgVQIb9Pi/1bLkcD3TP7N3ZeTeyQ1h0eP/eh0JeLuG4m1ik8fFFi8TYJbtUwB2CA6AlytzKt2Z+O6NvOHk1be3PTlVvLHbenvCP9aG4JxCqGk/M0eo24o7iy4hIAAC3iDwN1XzmpYW2l/P+C9bvSL6uP4vSTKpyHdsW07UyH/SUGNB9o0g0GS3FE/6iyMABbGLfxqhCMqsGYEhzfma3lT4gnuTe2/U32VL322z1qZ1jlCnB/Yx0wNmCLHsTJAABECgXgS2DfOnU+FD1Ym//s5bIi9VUnjfyujfZg6GT9JpQ3OhcCVZII2LCby8yy7Fk7qiA0Cz5xT/uFhfqFYegbUicqppAMpLNnHs0ekBM4TIYh1LJLcxUX7i2FgLAiBQVwJCz+sx+WkaajrAHKPDw/yso/jVaWGuEdBpw8U6Cnil5jSowXFBhg0hkB15BxAVHYC+G3gTGvSGVERNCg2xdVamJ/qrWmTe29P6p3QqesmGwpZ5mn+ChH6pSwgIgEB9Cdh67H3fjMwVsuH99Zj8ePqOWc/UQgUdBbxJ+4dra5E38mwIgW0n/EUHwKig7uIjZongeQJDOco9UWsr7rl993w6FUmleyJvEOEjdajwC9og6ZlIrUtG/iAQYAJMTxLzJ8zZvh57Z2WS4T4zQke1/jA97HwRyLFBBB4dLXebA0B2YSkRP034eJ1A02xpvaX90hda62VIpif8sA4Vfuj5fcL7sk3narnf0oAhQ4UAAQEHCGwipq/bzKenk+be/fCnanW2P5Gu7V39B4rQdRNtwzrPEXi4YMv7RrXe5gCkV875v5mDQ2Z+d83oRiw9S2BRaOvMxzsT+aWndUtTvaz4aTcP9a6M3KsjA+c1h3gfNk8YG54ikHrpgHJAwCcEzC24P9WRtfjMwcLe6WRk4Zpk+CekE/JUp8/8S/rndHTlvqhTiubs/1VOF4v86ktAG+EVG3jgNeYCz9GStzkAZsWqVXP606loh4i8R/8PaIB4lQDTXK3H2/Zal/9LRyLfXm8z7rot/EJvKnpzWqcICjx0gJCo18m/r7ceKA8EvERA59of0j7+OqtgvzKdivy7jqz1mHa5njYkEtKsHX/CHrIeUQfk/Vr2DA0QjxIQon4SjmVSkYt3vCNsnANAI59MT/TOgtjG4/vFyCosPEpAhA5jkTWxeO6X5y/JndwIM/qSuz6dSUVvTKfCJzDx0aaBUz1qfp2ClgEBAfcTYHlGG+ibhO0TelORo9LJaHc5z+1w0sDOJblzcpJ/SDv+FZrvHhpqJMi2HgSY6Cd2qOnodE84M1F5EzoAJmJfT9tTz88Lv3GksTbDUWY1gncJvM6y6GexrtyajkT/wY0yozcV/qtp4PTs5hDe7gzgAtRGVQjKbRSBv5tOXzvaU9PJyP7aQF+ZSbY1bISsI549sbMr979i0T0K5BANEG8TGCKW68x7X8zzXCYzZVIHwCQwc7pp9UbJst6s//GyGIXgcdE+l9pZrL92xnNfal+S3bWR9oxxBo4Qy3o1k3ySmP7SSJ1QNgjUigATPUQin7LIOk4d4ANNp69D/A+QttTUoI+5wC+WyKaZ+NfC9G/1UgPl1JTA42TZrzd9d3c3T3nybpWiRnpF6/+0tJB5W9R/lRIfcVxPYIbOC10dsvhJPfi7Fy1a39ZojTMrWv/Ym4pem05GjlHdDhOmD6tOZgqqoEsICHiRgGl8f0NCH9Uz/SN6zfB+T/QTq1Otf2i0Me2Jl/eLxbNfDbH1CAl3qD6sAeJtAtp0UqrQvPn49Iq2B0sxpSQHwGRkHimZSUXeLVx8Y9zLZh2C5wlE9eC/dktz6OlYPLd8/iX9c9xgke5nj2WSkeV6lnSyOp57Fvc5piSJeeKZGzSEDiAwGQE2j93+jggtpUJoX92HT0r3RD6rZ/qumOaKXbRx31hX/saQND1KxBcTUYuGOguKqwGBf2qe79D9LdF36x4lX8BfsgOgmRclkwz36c5zLBH/N+HjCwJCFFZDltlD1hMd8fwnFlzxUkT/u0KKjqfuc+lkZGkhG95Hz6ROZaHlqhxeVKIQIK4g8JhqcYNOlZ4R4dY2bYTPyfREkunbZ6/T9a6QBV0b99HRvv+kpqHHdcbhvarUTA0QPxBgyeiJ0lG635nrN8qyqGwHwOR+d8+sZ9Op1rcUvVyikr0NkxbB1QTm6Dz8dfbm5mfNiIAbpgbG0urr44KeST3Q2xP5sO7sxzaHePvoANE/xsbFbxCoIYF/6WhUn2n/CmIfpPviYRquNlOlySS76gFYCy/O72GO5QIPPUbClymTht/SpzpAHCCgJ279Zh9MJ6Mxc6JUSZYVOQDDBanboV6uZcnxJITnwQ9D8cW37ljFEYHNzaEnYl25j5y7+EXz33W2mWcNZEZGB7QBPqBQoMNJ+HJV1DyJcL0uISDgAAHeKMQ/0Iw+aJF13OHzwnvqsP755izf3C2l610nscUb9u6I528aLIhxjJepgrtogPiHwPe4EDrK7IPVmFSFAzBc7OoV0cd1aPZUGb5oa+vwWnz7hMCuxPSZXUIzitcImEbFzXb13R55NN0TvkWdgfMK/eHdzX3VOtxp3mT2DcL1A26uOrfplhWi7zLRR8yUU3Zm666ZVPgt6VTki+YCvumurG6kMR1L8kfrGf9KChWe1NG8K1QXlw31q0aQaggMMPPF6VT4bU5MMVXtABhLzNCsuWiLiY/X/7/WAPERASYydwks00blKW1c7lyQGDiGXP4Z3ifbfp9ORm/Shrtdz9j2okJonpiLWIVv0gb+d2qCLvQbEmwCw87hdxTCNZbYr9EzfO3wI2/rTUU+Z6acRl+dqttdK52J3Cl6bN7LlphrYxarohjqVwh+Eha634y49ybDK0jPbMiBjyMOwKge5r5uPXjeYOYldN0GDRB/EWhRcxbqvOeftLF5wDw1jEjUP9C1HhDjMWfMlEFP+MpMKvIanRedw0ynSvExxXSXmvCUBoiPCejOmlfzfq677U0i8h4mNk9J21udxHM0XL+6p+133d1T3zut6V0h7e3SYh7zrcfib0ToZ6rU2RpYg2sFilVEIKv1u7S3J3yaGXGvKIdJEjnqAJgyzMGTGb424DjjsZh1CL4kcLJYdE8skftdLJGdb54f7jUr+5K7Zs0ZXiZlHlMcuVA7gINC0rSvOgXv1KmPz8rwvO9zXrML+m4jkNVfD2g93qyO6oUifORh88LmKv1T0sYJ7IneaU5ayKGzKarTZ/4l/XM6ErlrQm35p8xjvrXYEzVA/EngHh25PDKjfSrVYD913AGgkY/xVIzHwsSXMZHxuke2YOErAsLH6dnU3TkZ+JueiXygM5Hbzcv23d0z61l1Cr6dTkY+mhme992bmXYnyzpDG9ur1LbbhchMH2zS3xB3EDAPi3qMhPqI+ONE9HYdpTJX55vO/lStx/emU9G7Mj3hh80Jim73pHR05Y8wF/bZQ9bTLPQ5NWJvDR4SqFoGgRdZZH46FXm7GbksI11ZUWvmAAxrwaIe9q1DPHS0DJ9NDa/Gtw8JyH5q1BdE6NnOeP7rsa7cqfrfF6IOwb/MLV69PdGv6AG5JGOmD/rDYSE6TA18u4YPqt092ijfr79f0ACpDYEBIv49k6RJuFuIO82Fnht4IKL1cli6J3J+OhX+tP6+x61X51OZn0WLZGZHPLtAnev7meUhJjEX9rWWmQ2ie4iA1nG6MMRHaXvTW2u1a+wADKuvQ61PZ/RsSnTOTde8qAHiXwIzhGSBDqHf3xnP/bUznr3Cbc8TcAJ98SLDVOSxdCpyj4Yv6hBdvLcn8kb9vefMwcIcy5aT1INfSMyf0PJWksj/6PJvGrZqgExO4DkS+iURm8bvc8x8sRl9CenUjLINawd/Qm8q2pnuCV+XSe4EbhMAABAASURBVIXTmWTb73d8xSn54KMjaYfr8fOlzU35Z5n462qS5x1qtQEyJQF+mm061+zffXeE69JP1sUBGLU5o3NuLS10hP6/XYNogPiYgFbwkUJ80+bmprXaoN0eS2RP8rG520xbtWpO/+qV0d/09kS/nk6GP5VORbrSPdEzdPnKw+eFdymEmkaeaCgLmekDmvAGbeTvZqKfaHhIiPrJf5/NatLfNfxC7fu2TmfeIsTXqv1xm+Qt5hkOMwfDuyijvdM9kTdoRz9ff3+kNxleYUZf7tapGU3raznrCpnR2ZXtjMVzP9URJbMfXE1Mr/C10TDOEBjS+v5S8+YNR/aujNxrVtQr1NUBMEaZJxbpgb3Etvg0JnrIrEPwOwGZpTv4RST8Kx3O/D9t4OLt7RLyu9UT2dfdzbZ5PadOKzzQqw6CLr+kx8PVOlV2QW8qcrqGozKpyBzTGRZ4aH+y7BNZ7DczcQcRX8JEHyGiL2pYqeFbTPIjGj5j/r12Fk/qurUazEOQCrp0UnKa2b+KZTD9Rcx1EMOjGvfpuq+T8E3Ecp2GK80Fd7o0V6SfrB38EVaTvavaaDr3A3V5str3znQyenkmFf6k2t+zJhX9gXmGw6pVbJwELSZY0tk1sKceE1+Ibs4/K8yr1fo3atCq1m/fCAyZhMBvLLJOzPREPnDXXXPrfudc3R2AUQhrVoTvH+oPH6c7/Md0HS6oUghBECZ+tdqZtNryn9UlZBICpjM0U2fmrV69PW0/VAdhTToVvk0dhM+lU5EPaujScF5vKnpmeviM+YR0MnKwrttHg+lwmwr94SbT+Y4LBftga4pQaLb2Ght/Aw/M1vxYQ1TD7sUykpFjMqnIa9LDoxpn67qF6Z7wlelktFvDTelU9C5d3pdORX6hHfwjq7/aZhySSSzFamL7x0rBjATtpktIMAhk1Wm+XEcEX7+6gW+HbJgDYOpY51G3ZpLhzxRseRURXi5EAfow0UEBMrchpurxVTCd77hwe9uTq6cIfbe2Pj82vh/n1xtSGZMU2t0tlhDtM8lm36yGIWMICPU1cegIdZpvMSOCY7bU/WdDHYBRa/tWRv+WToX/Q4g7dZ0ZwtQFxM8EdFg76Wf7YBsIlELAdAA6TbKilLiI43kCj7MlZ6V7Iud/PTnbFc8XcYUDMFqtmVQ4rUOOh5KZSyTaMroeS98R+N9eHdb2nVUwCAQqIDBja8FMh71cQVKPJAm6mrzR9GnZmeFjeldEv+8mGq5yAAwYM+SY1rlEnRY4Woi+a9Yh+IqA6OcaX1kEY0CgCgLmrhERWl5FFkjqXgLfseyhI02f5sZ3SrjOARitRzMtkElF3mbui9R1eEa7QvCJ/FemJ/orn9gCM0DAEQK7DIVvJuKnyYefgJr0iLD9H+lU5JzVK+f8w60MXOsAjAIz90UWWsNH6X9z1jigS4h3CRRE+BPeVR+ag0BtCJi7PnRkrLs2uSPXehHQUet+IXnf8/PCx2SSbf9dr3IrLcf1DoAxrO8G3qSe1PWWXTiaSdK6TjnrN8RrBFZlesIPe01p6AsC9SBgZ8N3EtNf6lFW/coITElD2vHfag/xoZlU9MafdvOQFyz3hAMwCtIMpfSmop0K2jxR7oHR9Vh6gsBmGmq6zhOaQkkQaAABc9umCH24AUWjyCoI6Enpj0JsHa8d/2X1eoRvFeqOS+opB2BUcwX9Wx0ROJVtOlc9ZvP0s9FNWLqUADPdnL5j1jMuVQ9qgYArCGRSke+oIubBQLrwvvjcgkd0KPocPSk98+5k65+9aKsnHYBR0L0rI/cW1oeP0BGB9+m6rAaIOwlkm5vpeneqBq1AwF0ELFvMKID2Le7SC9qMEBB6yfQ5xXn+YYdtZIP3Fp52AAxuHTbbmtE5FxbrMD1izAM1PDH3YnQPTBD6vHkHRGDshaEgUAUB8yIpbcu+WUUWLknqOzU2sdDy0C6DB5k+xyvz/FPVgucdgFHjenta/5lJRS4uFOhoXfcNDXoM6TeksQSEnm/esvHGxiqB0kHAWwTsAn1UNcbJjEJwgZh6SBVCTa/s7Yl8+O6bX2FejOUCtapXwTcOwCgK81axdCrSrkM0J9Hw28pGN2HZCAJMH23EW64aYSrKBAGnCJh2jIRvdSq/RuTjhzJHL/DTPiXRd9ss3z2m3ncOwOhOl0lFf5vuiZ5hk3WmEP1udD2W9SNguB8+L7yqfiWiJBDwD4HQLls/TjqC5h+LPGXJz5npVC9f4FcKbauUSF6OsybV+qNMKnyiUPFFQ3/zsi0e012Y5bLubrY9pjfUBQFXECgONesImiuUKVsJrybg3488we+U3mTE97ea+94BGN4NWdQJSEc4fKSIvEfXwRFQCLUU9Z5XpZPRX9eyDOQNAn4nMDKChuOo9hX9V2E+P51qfY0XnuDnFI6AOADDuJJJHsz0RO/c5ggw4RkCw2gc/WaifIhC5iImR/NFZiAQNAJmBM0S+zK121MjaaqvV+Rhc1JY6A8fm0mG+4hYKEAfK0C2bjN11BEoPkNAaKlu8N3FHWpTw0Rbqu6vJ2c/1zAFUDAI+IjA6p42cw0TrqVxtk6fEm37teM/JqMnhX19XHA2e2/kFkgHYLRqtNK3ZnoiyZmD4UOE5H244GaUTFXLh6Ns3mxWVR5IDAIgMIZAc4g/LET95ImPq5V8QqcnF2nH/0rT9msfEMiOf7SGAu0AjEJYtYo3Z1LRG7O7hA8ww0G6HtcIKIRKhC252oywVJIWaUAABCYmcNdt4ReY5dqJt2JtCQSeED3jf35e+PDeZORrQe/4R3nBARglocvv3cxbMjoctO0aAaJHdDWkdALf6l0R/X7p0RETBECgVAKF9ZFbNO6fNLhaXKbcH81JnZ7xH5bR0d6feuQtffViCAdgAtLmDDajjsDh88JHsU3n6tCbmYObICZWjSGwxbJk2Zj/+AkCIOAgAXPWqsPX5oJAbZIczNifWf3ctN3pVPg405Ybdv40szqr4ABMwa+7m23zwqFMKnyiRnu7BtyOoxAmFJHPr14RfXzCbVgJAiDgCAEdvn6AWNY4kllNMmlopkJC37ctfmM6FTnFtN2ksAifSQnAAZgUzdgNLLpD3aPhdeqBn6o7WZ9uDfTFI2r/WHmsEI58buwK/AYBEKgNgUJTyLz9dH1tcvdkroOmTdbe/6R0T+SsNSvC93vSigYoDQegTOjGA9ed7PyCLYeT8E2afJOGIIuw8CV9N3DQOQR5H4DtdSTQd2vr83oi8qE6FllyUfWMaJ43UmyDh5oONm1yJhX9bT3L90NZcAAqrMW+ldG/pXvCVzaH+AAdZbqOhF6qMCuPJ5MVvT3hH3vcCKgPAp4i0JsMrzQvqvGU0k4pa96PwHIdN9n7mzY4fcesZ5zKOmj5wAGossbN7TnpZLS7ecvG/fWAfK9m95iGoMjaAheuCYqxsBME3ENAx90sulT1cdHIm2pTW/mtDvNfELHC+5k2d/VX2zANUiVvOABVAhxNftddczf0pqI3p1Phw22yztT139EgGnwrOgx5eV9y16xvDYRhIOBiAuaiW2H6pItVdEK14vy+rW1qOhV5bSYVvdvcpeVExsiDCA6A43sBi3kDoe6s5xRsOVSzv16I/PcEL5ZMbzLybcIHBECgYQT+uXf4i0T8e3LBx2EVXtD8rqeR+X3Tpup/iMME4AA4DHRsdsXrBFKRa2weMtcJXK3b/PGEQaGX2A5dqfZAQAAEGkjAPNjGkkJCVRjS4H0RetA8uCc7U4f5te3E/H5tqxQOQG35FnM3w+Q6Z3VDOhU+1NahLBIytxEOFjd68Evn4a7u7Wn9pwdVh8og4DsCq4dfFvSVxhpWVembTZto2sZ0T+TETE/0TvNU1qpyROKSCMABKAmTU5FGpgd6IucXmq39NNdrNPxDg5fkx5meyF1eUhi6goDfCWzgAfOegCe8ZCczPar6XqNTpfO04z8fw/xKo84CB6DOwEeLM/fyplOR6w+fFz7IeL7GA9ZtLn+4EG+0CnaciIXwAQEQcA2Be5N7b7SZ9djUlqQBWpVR5BbVsM/WkdDeZPgI0wbqVOnLZaRHVAcJwAFwEGYlWXV3s208X+MBU6hwiPat12k+rhwVELaXrb697UnVDwICIOAyAmuS4Z+I0EqXqVVUR0j+oG3blS0tNOZsHycSRTgN/IID0ED4Oxadvm3O39PJaLcZFdDhsVOJKUnEG8kVH/7vTLL4NjJXaAMlQAAEdibQsmWjeUxwnd/JsbMeZo0Q9Zs2zLRlmVT0OG3bbrrzlkhAH5hGrvzAAXBhtXTrqEBvMvJAOhlZWuDBvdWrX6pq/lxDo+RfTWwtInXhCR8QAAHXEjDPI1Hl9FilRk0n2kzyI3Ml/0YemGfaMNOWqU4QFxKwXKgTVBpDwNxBkOmJJHWu7BSx+Rj1qj+vm5/VUE9JfD05+7l6FoiyQAAEKiOgbcUvNOUXNdRFRgr5ky4/WAg17debip6Z6Yneaa5L0HUQFxOAA+DiytlRtczK8F8yqcgynSLY3wyrmeE1jZPTUEtZqQ3Kt2pZAPIGARBwlkCEwx8noQedzXWn3NaS8E2W2K/RNuJYDV/su23W2p1iYYVrCViu1QyKTUpg3BRBa3gui8zXyPdpcPrZAk9sLGy5SvOFgAAIeIiAeVxuyLIWq8pbNDgp5oRjFQu/SU9E9kv3hK9cPfwcAifLQF51IgAHoE6ga1VM3w28qbcn2qve99lWk72nmXvTssx7CKp9MtgQW7Twntt3z2t+EBAAAY8RuDvZ+mdV+WMaqpVNmsF3TNvSvHnj3trWXNTbE/6xORHR9RAPE4AD4OHK21F183asjM696QF6TksLzTUHrMYxzkDZFwQxyWd7V0R+qekhIAACHiWgZ+lfZqKfVKD+Zk1T7PQLzZv3MG2KaVtGLjLUTcOCb28TgAPg7fqbVHtzu405YM2BG5KmA3SawAzlmzsJ7EkTbd/w2zBHPr39L36BAAh4kYA5S5dQwUwFmKH7aUwo3nL8LWJZoJ3+7qbtMG1I3617DEyTEJs9SgAOgEcrrhy17+6Z9WxvT/QrekCfwkxjpwm2TpDPhkKBFpo5xAm2YRUIgIDHCJjni6jKk728a4NuK57pbyxsnqttxHnpZHR1aZ2+poR4mgAcAE9XX/nK9yYj/zJevR7o5xRs2UtzuEiE7tWlGfLbRMJL+m6PmGd06yoICICAHwjo8b5Knf87Rmwxr9pNsSVnFfrDu+q2c0ybgOt9RugEaAEHIECVvaOp5hncevCvyvREzi20hnct8NBe6Z5wZsd4+A8CIOB9Aur8L24O8Z7a6e+tx32id0X0+319PNEoYEnGIpL3CcAB8H4dOmKBuZugL7lr1pHMkAkIgIArCdx1W/gF7fTLvijYlcZAqaoJwAGoGiEyAAEQAIGgEYC9fiAAB8APtQgbQAAEQAAEQKBMAnAAygSG6CAAAiAQdAKw3x8E4AD4ox5hBQh7kpnpAAADmUlEQVSAAAiAAAiURQAOQFm4EBkEQAAEgk4A9vuFABwAv9Qk7AABEAABEACBMgjAASgDFqKCAAiAQNAJwH7/EIAD4J+6hCUgAAIgAAIgUDIBOAAlo0JEEAABEAg6AdjvJwJwAPxUm7AFBEAABEAABEokAAegRFCIBgIgAAJBJwD7/UUADoC/6hPWgAAIgAAIgEBJBOAAlIQJkUAABEAg6ARgv98IwAHwW43CHhAAARAAARAogQAcgBIgIQoIgAAIBJ0A7PcfATgA/qtTWAQCIAACIAAC0xKAAzAtIkQAARAAgaATgP1+JAAHwI+1CptAAARAAARAYBoCcACmAYTNIAACIBB0ArDfnwTgAPizXmEVCIAACIAACExJAA7AlHiwEQRAAASCTgD2+5UAHAC/1izsAgEQAAEQAIEpCMABmAIONoEACIBA0AnAfv8SgAPg37qFZSAAAiAAAiAwKQE4AJOiwQYQAAEQCDoB2O9nAnAA/Fy7sA0EQAAEQAAEJiEAB2ASMFgNAiAAAkEnAPv9TQAOgL/rF9aBAAiAAAiAwIQE4ABMiAUrQQAEQCDoBGC/3wnAAfB7DcM+EAABEAABEJiAAByACaBgFQiAAAgEnQDs9z8BOAD+r2NYCAIgAAIgAAI7EYADsBMSrAABEACBoBOA/UEgAAcgCLUMG0EABEAABEBgBwJwAHYAgr8gAAIgEHQCsD8YBOAABKOeYSUIgAAIgAAIjCMAB2AcDvwBARAAgaATgP1BIQAHICg1DTtBAARAAARAYAwBOABjYOAnCIAACASdAOwPDgE4AMGpa1gKAiAAAiAAAtsIwAHYhgI/QAAEQCDoBGB/kAjAAQhSbcNWEAABEAABEBghAAdgBAQWIAACIBB0ArA/WATgAASrvmEtCIAACIAACBQJwAEoYsAXCIAACASdAOwPGgE4AEGrcdgLAiAAAiAAAkoADoBCgIAACIBA0AnA/uARgAMQvDqHxSAAAiAAAiBAcACwE4AACIBA4AkAQBAJwAEIYq3DZhAAARAAgcATgAMQ+F0AAEAABIJOAPYHkwAcgGDWO6wGARAAARAIOAE4AAHfAWA+CIBA0AnA/qASgAMQ1JqH3SAAAiAAAoEmAAcg0NUP40EABIJOAPYHlwAcgODWPSwHARAAARAIMAE4AAGufJgOAiAQdAKwP8gE4AAEufZhOwiAAAiAQGAJwAEIbNXDcBAAgaATgP3BJvD/AQAA//8v8SnNAAAABklEQVQDAIySfXgrNfDGAAAAAElFTkSuQmCC;" parent="xcjxFG68ZafjqSgIQfne-6" vertex="1">
          <mxGeometry x="40" width="30" height="30" as="geometry" />
        </mxCell>
        <mxCell id="xcjxFG68ZafjqSgIQfne-7" value="" style="sketch=0;outlineConnect=0;fontColor=#232F3E;gradientColor=none;fillColor=#232F3D;strokeColor=none;dashed=0;verticalLabelPosition=bottom;verticalAlign=top;align=center;html=1;fontSize=12;fontStyle=0;aspect=fixed;pointerEvents=1;shape=mxgraph.aws4.authenticated_user;" parent="1" vertex="1">
          <mxGeometry x="40" y="265" width="50" height="50" as="geometry" />
        </mxCell>
        <mxCell id="xcjxFG68ZafjqSgIQfne-8" value="" style="endArrow=classic;html=1;rounded=0;entryX=0;entryY=0.5;entryDx=0;entryDy=0;entryPerimeter=0;" parent="1" source="xcjxFG68ZafjqSgIQfne-7" target="xcjxFG68ZafjqSgIQfne-3" edge="1">
          <mxGeometry width="50" height="50" relative="1" as="geometry">
            <mxPoint x="70" y="430" as="sourcePoint" />
            <mxPoint x="120" y="380" as="targetPoint" />
          </mxGeometry>
        </mxCell>
        <mxCell id="xcjxFG68ZafjqSgIQfne-9" value="" style="endArrow=classic;html=1;rounded=0;exitX=1;exitY=0.5;exitDx=0;exitDy=0;exitPerimeter=0;" parent="1" source="xcjxFG68ZafjqSgIQfne-3" target="xcjxFG68ZafjqSgIQfne-10" edge="1">
          <mxGeometry width="50" height="50" relative="1" as="geometry">
            <mxPoint x="330" y="320" as="sourcePoint" />
            <mxPoint x="360" y="290" as="targetPoint" />
          </mxGeometry>
        </mxCell>
        <mxCell id="xcjxFG68ZafjqSgIQfne-10" value="" style="sketch=0;outlineConnect=0;fontColor=#232F3E;gradientColor=none;fillColor=#232F3D;strokeColor=none;dashed=0;verticalLabelPosition=bottom;verticalAlign=top;align=center;html=1;fontSize=12;fontStyle=0;aspect=fixed;pointerEvents=1;shape=mxgraph.aws4.generic_database;" parent="1" vertex="1">
          <mxGeometry x="370" y="251" width="59" height="78" as="geometry" />
        </mxCell>
        <mxCell id="xcjxFG68ZafjqSgIQfne-11" value="" style="endArrow=none;dashed=1;html=1;rounded=0;" parent="1" edge="1">
          <mxGeometry width="50" height="50" relative="1" as="geometry">
            <mxPoint x="360" y="460" as="sourcePoint" />
            <mxPoint x="360" y="130" as="targetPoint" />
          </mxGeometry>
        </mxCell>
        <mxCell id="xcjxFG68ZafjqSgIQfne-13" value="" style="endArrow=classic;html=1;rounded=0;exitX=0;exitY=0.5;exitDx=0;exitDy=0;exitPerimeter=0;" parent="1" source="xcjxFG68ZafjqSgIQfne-15" target="xcjxFG68ZafjqSgIQfne-10" edge="1">
          <mxGeometry width="50" height="50" relative="1" as="geometry">
            <mxPoint x="429" y="340.0000000000001" as="sourcePoint" />
            <mxPoint x="540" y="339.9999999999999" as="targetPoint" />
          </mxGeometry>
        </mxCell>
        <mxCell id="xcjxFG68ZafjqSgIQfne-15" value="" style="sketch=0;points=[[0,0,0],[0.25,0,0],[0.5,0,0],[0.75,0,0],[1,0,0],[0,1,0],[0.25,1,0],[0.5,1,0],[0.75,1,0],[1,1,0],[0,0.25,0],[0,0.5,0],[0,0.75,0],[1,0.25,0],[1,0.5,0],[1,0.75,0]];outlineConnect=0;fontColor=#232F3E;fillColor=#DD344C;strokeColor=#ffffff;dashed=0;verticalLabelPosition=bottom;verticalAlign=top;align=center;html=1;fontSize=12;fontStyle=0;aspect=fixed;shape=mxgraph.aws4.resourceIcon;resIcon=mxgraph.aws4.robotics;" parent="1" vertex="1">
          <mxGeometry x="540" y="260" width="60" height="60" as="geometry" />
        </mxCell>
        <mxCell id="xcjxFG68ZafjqSgIQfne-17" value="" style="sketch=0;outlineConnect=0;fontColor=#232F3E;gradientColor=none;fillColor=#232F3D;strokeColor=none;dashed=0;verticalLabelPosition=bottom;verticalAlign=top;align=center;html=1;fontSize=12;fontStyle=0;aspect=fixed;pointerEvents=1;shape=mxgraph.aws4.servers;" parent="1" vertex="1">
          <mxGeometry x="710" y="250" width="78" height="78" as="geometry" />
        </mxCell>
        <mxCell id="xcjxFG68ZafjqSgIQfne-18" value="" style="endArrow=classic;html=1;rounded=0;dashed=1;dashPattern=8 8;exitX=1;exitY=0.5;exitDx=0;exitDy=0;exitPerimeter=0;" parent="1" source="xcjxFG68ZafjqSgIQfne-15" target="xcjxFG68ZafjqSgIQfne-17" edge="1">
          <mxGeometry width="50" height="50" relative="1" as="geometry">
            <mxPoint x="470" y="420" as="sourcePoint" />
            <mxPoint x="520" y="370" as="targetPoint" />
          </mxGeometry>
        </mxCell>
        <mxCell id="xcjxFG68ZafjqSgIQfne-19" value="Signal:START" style="text;html=1;align=center;verticalAlign=middle;whiteSpace=wrap;rounded=0;" parent="1" vertex="1">
          <mxGeometry x="610" y="265" width="80" height="30" as="geometry" />
        </mxCell>
        <mxCell id="xcjxFG68ZafjqSgIQfne-12" value="" style="sketch=0;outlineConnect=0;fontColor=#232F3E;gradientColor=none;fillColor=#232F3D;strokeColor=none;dashed=0;verticalLabelPosition=bottom;verticalAlign=top;align=center;html=1;fontSize=12;fontStyle=0;aspect=fixed;pointerEvents=1;shape=mxgraph.aws4.recover;" parent="1" vertex="1">
          <mxGeometry x="530" y="240" width="30" height="30" as="geometry" />
        </mxCell>
        <mxCell id="xcjxFG68ZafjqSgIQfne-26" style="edgeStyle=orthogonalEdgeStyle;rounded=0;orthogonalLoop=1;jettySize=auto;html=1;" parent="1" source="xcjxFG68ZafjqSgIQfne-23" target="xcjxFG68ZafjqSgIQfne-7" edge="1">
          <mxGeometry relative="1" as="geometry" />
        </mxCell>
        <mxCell id="xcjxFG68ZafjqSgIQfne-27" value="" style="edgeStyle=orthogonalEdgeStyle;rounded=0;orthogonalLoop=1;jettySize=auto;html=1;" parent="1" source="xcjxFG68ZafjqSgIQfne-23" target="xcjxFG68ZafjqSgIQfne-7" edge="1">
          <mxGeometry relative="1" as="geometry" />
        </mxCell>
        <mxCell id="xcjxFG68ZafjqSgIQfne-23" value="" style="sketch=0;outlineConnect=0;fontColor=#232F3E;gradientColor=none;strokeColor=#232F3E;fillColor=#ffffff;dashed=0;verticalLabelPosition=bottom;verticalAlign=top;align=center;html=1;fontSize=12;fontStyle=0;aspect=fixed;shape=mxgraph.aws4.resourceIcon;resIcon=mxgraph.aws4.addon;" parent="1" vertex="1">
          <mxGeometry x="40" y="170" width="50" height="50" as="geometry" />
        </mxCell>
        <mxCell id="xcjxFG68ZafjqSgIQfne-24" value="" style="image;aspect=fixed;html=1;points=[];align=center;fontSize=12;image=img/lib/azure2/intune/Azure_AD_Roles_and_Administrators.svg;" parent="1" vertex="1">
          <mxGeometry x="40" y="100" width="68" height="68" as="geometry" />
        </mxCell>
        <mxCell id="xcjxFG68ZafjqSgIQfne-28" value="MCStarter" style="text;html=1;align=center;verticalAlign=middle;whiteSpace=wrap;rounded=0;" parent="1" vertex="1">
          <mxGeometry x="90" y="180" width="60" height="30" as="geometry" />
        </mxCell>
        <mxCell id="xcjxFG68ZafjqSgIQfne-29" value="" style="endArrow=none;dashed=1;html=1;rounded=0;exitX=0.5;exitY=0;exitDx=0;exitDy=0;exitPerimeter=0;" parent="1" source="xcjxFG68ZafjqSgIQfne-3" target="xcjxFG68ZafjqSgIQfne-23" edge="1">
          <mxGeometry width="50" height="50" relative="1" as="geometry">
            <mxPoint x="380" y="400" as="sourcePoint" />
            <mxPoint x="430" y="350" as="targetPoint" />
          </mxGeometry>
        </mxCell>
        <mxCell id="xcjxFG68ZafjqSgIQfne-30" value="Signal:START" style="text;html=1;align=center;verticalAlign=middle;whiteSpace=wrap;rounded=0;" parent="1" vertex="1">
          <mxGeometry x="280" y="260" width="80" height="30" as="geometry" />
        </mxCell>
      </root>
    </mxGraphModel>
  </diagram>
</mxfile>
